<?xml version="1.0" encoding="UTF-8"?>
<!--Generator: Apple Native CoreSVG 341-->
<!DOCTYPE svg
PUBLIC "-//W3C//DTD SVG 1.1//EN"
       "http://www.w3.org/Graphics/SVG/1.1/DTD/svg11.dtd">
<svg version="1.1" xmlns="http://www.w3.org/2000/svg" xmlns:xlink="http://www.w3.org/1999/xlink" viewBox="0 0 27.2074 22.0575">
 <g>
  <rect height="22.0575" opacity="0" width="27.2074" x="0" y="0"/>
  <path d="M3.84421 21.825L23.3062 21.825C25.541 21.825 26.8558 20.5198 26.8558 18.0192L26.8558 5.96718C26.8558 3.46664 25.5314 2.16141 23.0116 2.16141L11.6165 2.16141C10.7796 2.16141 10.2717 1.96758 9.62881 1.43625L8.95826 0.892499C8.13631 0.217265 7.53022 0 6.30257 0L3.47905 0C1.29539 0 0 1.27523 0 3.73405L0 18.0192C0 20.5294 1.31484 21.825 3.84421 21.825ZM2.25867 6.34312L2.25867 5.64257C2.25867 4.89398 2.78156 4.42007 3.67734 4.42007L23.1401 4.42007C24.0241 4.42007 24.5587 4.89398 24.5587 5.64257L24.5587 6.34312Z" fill="white" fill-opacity="0.85"/>
 </g>
</svg>
